<svg width="1444" height="1751" viewBox="0 0 1444 1751" fill="none" xmlns="http://www.w3.org/2000/svg">
<path d="M1110 1484.59L720 1721.32L398 1524.88M1110 1484.59V1114.32M1110 1484.59L1418.5 1297.32V802.321M398 1524.88L720 1341.32M398 1524.88L25 1297.32V924.321M720 1341.32L1110 1114.32M720 1341.32L340.5 1114.32M1110 1114.32V629.321M1110 1114.32L720 866.821M1110 629.321L1418.5 802.321M1110 629.321L720 432.821M1110 629.321L720 866.821M1418.5 802.321V456.321L1069.25 242.821M720 432.821L1069.25 242.821M720 432.821L340.5 629.321M1069.25 242.821L720 29.3213L340.5 262.482M340.5 629.321V262.482M340.5 629.321L720 866.821M340.5 629.321V1114.32M340.5 262.482L25 456.321V924.321M720 866.821L340.5 1114.32M340.5 1114.32L25 924.321" stroke="white" stroke-width="50"/>
<path d="M370 278.321L714 62.3213L1020 241.821L370 584.321V278.321Z" fill="#1640CA"/>
<path d="M777 431.821L1068.5 270.321L1393 472.821V761.321L777 431.821Z" fill="#1640CA"/>
<path d="M1135.5 673.821L1393 817.821V1283.32L1135 1440.32L1135.5 673.821Z" fill="#1640CA"/>
<path d="M1085 1469.82V1157.82L447.5 1525.32L720.5 1691.82L1085 1469.82Z" fill="#1640CA"/>
<path d="M370 278.321L714 62.3213L1020 241.821L370 584.321V278.321Z" stroke="#1640CA"/>
<path d="M777 431.821L1068.5 270.321L1393 472.821V761.321L777 431.821Z" stroke="#1640CA"/>
<path d="M1135.5 673.821L1393 817.821V1283.32L1135 1440.32L1135.5 673.821Z" stroke="#1640CA"/>
<path d="M1085 1469.82V1157.82L447.5 1525.32L720.5 1691.82L1085 1469.82Z" stroke="#1640CA"/>
</svg>
